<svg width="22" height="22" viewBox="0 0 22 22" fill="none" xmlns="http://www.w3.org/2000/svg">
<path d="M3.66663 10.7486C3.66663 10.4005 3.92527 10.1129 4.26084 10.0673L4.35413 10.0611L16.4395 10.0616L12.0734 5.71338C11.8043 5.44547 11.8034 5.01017 12.0713 4.74111C12.3148 4.4965 12.6967 4.47349 12.9663 4.67261L13.0436 4.73901L18.5894 10.261C18.6249 10.2963 18.6557 10.3345 18.6818 10.3749C18.6892 10.3871 18.6967 10.3995 18.7038 10.4122C18.7104 10.423 18.7163 10.4343 18.7219 10.4457C18.7297 10.4623 18.7373 10.4795 18.7441 10.497C18.7497 10.5105 18.7544 10.5236 18.7587 10.5368C18.7637 10.5532 18.7686 10.5707 18.7729 10.5884C18.776 10.6008 18.7785 10.6128 18.7807 10.6247C18.7838 10.6425 18.7864 10.661 18.7882 10.6796C18.7898 10.6939 18.7908 10.7079 18.7913 10.7221C18.7915 10.7306 18.7916 10.7396 18.7916 10.7486L18.7913 10.7752C18.7908 10.7887 18.7898 10.8022 18.7885 10.8156L18.7916 10.7486C18.7916 10.7919 18.7876 10.8344 18.7799 10.8755C18.7781 10.8854 18.776 10.8955 18.7737 10.9055C18.7688 10.9262 18.7631 10.9461 18.7566 10.9657C18.7534 10.9754 18.7497 10.9858 18.7458 10.9961C18.7377 11.0167 18.729 11.0365 18.7194 11.0557C18.7149 11.0647 18.7099 11.0742 18.7047 11.0835C18.6961 11.0988 18.6873 11.1133 18.6779 11.1274C18.6713 11.1375 18.664 11.1479 18.6563 11.1581L18.6504 11.1661C18.6319 11.1903 18.6118 11.2132 18.5903 11.2347L18.5894 11.2353L13.0436 16.7583C12.7746 17.0262 12.3393 17.0253 12.0713 16.7562C11.8278 16.5117 11.8064 16.1297 12.0066 15.8609L12.0733 15.784L16.4376 11.4366L4.35413 11.4361C3.97443 11.4361 3.66663 11.1283 3.66663 10.7486Z" fill="white"/>
</svg>
