<svg width="32" height="32" viewBox="0 0 32 32" fill="none" xmlns="http://www.w3.org/2000/svg">
<path d="M26.6667 15.6343C26.6667 15.128 26.2905 14.7096 25.8024 14.6434L25.6667 14.6343L8.08802 14.6351L14.4387 8.31038C14.83 7.92069 14.8314 7.28753 14.4417 6.89617C14.0875 6.54038 13.532 6.50691 13.1399 6.79654L13.0275 6.89312L4.96084 14.9251C4.90925 14.9765 4.86444 15.0321 4.82641 15.0908C4.81567 15.1085 4.80474 15.1265 4.79437 15.145C4.78484 15.1608 4.77622 15.1772 4.76809 15.1938C4.75681 15.2179 4.74578 15.2429 4.73576 15.2683C4.72762 15.288 4.72083 15.3071 4.71463 15.3263C4.70726 15.3502 4.70011 15.3756 4.69395 15.4014C4.68937 15.4194 4.68575 15.4368 4.68258 15.4542C4.67814 15.4801 4.67435 15.5069 4.67165 15.534C4.66932 15.5547 4.66792 15.5752 4.66714 15.5957C4.66694 15.6082 4.66669 15.6212 4.66669 15.6343L4.66719 15.673C4.66795 15.6926 4.66929 15.7123 4.67121 15.7318L4.66669 15.6343C4.66669 15.6974 4.67253 15.7591 4.68371 15.819C4.6863 15.8333 4.68939 15.848 4.69281 15.8626C4.69991 15.8927 4.70812 15.9217 4.71758 15.9501C4.72222 15.9642 4.72762 15.9793 4.7334 15.9943C4.74508 16.0244 4.75779 16.053 4.77176 16.081C4.77825 16.0941 4.78552 16.1079 4.79313 16.1215C4.80563 16.1437 4.8185 16.1648 4.83212 16.1854C4.84172 16.1999 4.85236 16.2151 4.86346 16.23L4.87212 16.2415C4.89906 16.2767 4.92829 16.3101 4.95958 16.3414L4.96078 16.3423L13.0274 24.3757C13.4188 24.7654 14.0519 24.7641 14.4417 24.3727C14.7959 24.017 14.8271 23.4614 14.5358 23.0705L14.4387 22.9585L8.09069 16.6351L25.6667 16.6343C26.219 16.6343 26.6667 16.1866 26.6667 15.6343Z" fill="black"/>
</svg>
